<?xml version="1.0" encoding="UTF-8"?>
<svg version="1.1" xmlns="http://www.w3.org/2000/svg" width="456" height="456" > 
<path d="M0 0 C0.68884277 0.12358887 1.37768555 0.24717773 2.08740234 0.37451172 C32.26917465 5.96623913 58.01230622 19.797581 80 41 C80.77859375 41.71542969 81.5571875 42.43085937 82.359375 43.16796875 C105.84472338 65.36245578 121.81227888 100.80520087 123.12280273 133.01855469 C124.15417003 176.71843359 113.14193088 215.9605651 82.58154297 248.39160156 C65.34282814 265.92303924 43.95011678 277.67934078 21 286 C19.95328125 286.38027344 18.9065625 286.76054687 17.828125 287.15234375 C-16.96188134 298.39545556 -60.38364892 294.50073347 -93 278 C-103.45131679 272.3628376 -113.13497897 265.92193369 -122 258 C-123.45792969 256.73929687 -123.45792969 256.73929687 -124.9453125 255.453125 C-154.22846989 229.78691198 -170.90424756 193.63186873 -174 155 C-175.83217389 119.0612044 -165.46376764 83.32566321 -143 55 C-142.19046875 53.97519531 -141.3809375 52.95039063 -140.546875 51.89453125 C-114.93019959 20.21200246 -79.09642702 2.77323969 -38.8359375 -1.6171875 C-25.83848076 -2.78019274 -12.84241649 -2.31454468 0 0 Z " fill="#000000" transform="translate(253,81)"/>
<path d="M0 0 C26.17598437 22.22886882 43.01034531 53.57014241 46.21557617 87.86450195 C47.29095581 102.58648893 46.97682199 117.22647327 43.4140625 131.58178711 C43.24245605 132.27820313 43.07084961 132.97461914 42.89404297 133.69213867 C34.39499594 167.09589993 13.37679095 198.70472877 -16.5859375 216.58178711 C-48.20248211 234.69931498 -84.18882924 240.42618306 -119.62109375 231.32788086 C-140.12923154 225.72063237 -157.28544985 216.23749365 -173.5859375 202.58178711 C-174.32328125 201.99139648 -175.060625 201.40100586 -175.8203125 200.79272461 C-200.5770752 180.16208903 -215.64662232 146.19996891 -218.5859375 114.58178711 C-220.56933281 83.98575864 -213.72183834 54.56290496 -198.3359375 28.08178711 C-197.9239209 27.36974121 -197.5119043 26.65769531 -197.08740234 25.92407227 C-194.90135774 22.2972054 -193.03860843 20.09654803 -189.5859375 17.58178711 C-189.58447094 18.17555586 -189.58300438 18.76932461 -189.58149338 19.38108635 C-189.54435741 33.86365274 -189.48525317 48.34600814 -189.40203476 62.82838249 C-189.36231353 69.83212517 -189.32988612 76.83575661 -189.31494141 83.83959961 C-189.30048999 90.60247675 -189.26529988 97.36499643 -189.21762848 104.12771988 C-189.20282539 106.70397056 -189.19489711 109.28027049 -189.19405365 111.85656357 C-189.19167917 115.47351323 -189.16455801 119.08951353 -189.13183594 122.70629883 C-189.1368663 123.76438248 -189.14189667 124.82246613 -189.14707947 125.91261292 C-189.0102195 135.73190667 -186.29507301 143.64904763 -179.5078125 150.82788086 C-170.16694447 159.35237221 -160.80589994 159.88470098 -148.61108398 159.91992188 C-147.19435544 159.93083045 -145.77763262 159.94250359 -144.36091614 159.95487976 C-140.52581419 159.98527065 -136.69077201 160.00237639 -132.85557437 160.01509595 C-130.45316159 160.02320642 -128.05076554 160.03338797 -125.64836311 160.04411125 C-118.11346034 160.07680326 -110.57859884 160.10071001 -103.04363483 160.11292511 C-94.37993463 160.12715744 -85.71705216 160.17096805 -77.05362266 160.2404266 C-70.33483591 160.29241435 -63.61628015 160.31711433 -56.89729553 160.32174724 C-52.89478422 160.32512655 -48.89310119 160.33968504 -44.8908062 160.38302803 C-41.11879102 160.42316396 -37.34816863 160.42902083 -33.57600212 160.41012764 C-31.55569051 160.40828445 -29.53543565 160.44082319 -27.51541138 160.47494507 C-16.16981473 160.36023304 -5.34410294 156.29727602 3.04248047 148.34741211 C8.35053273 141.514405 10.45140572 132.6301751 12.2265625 124.33178711 C12.58669434 122.71433594 12.58669434 122.71433594 12.95410156 121.06420898 C16.5043557 104.92506627 19.75798352 88.71819529 23.02142334 72.51907349 C23.36879323 70.80514621 23.72317918 69.09264419 24.07861328 67.38037109 C24.2589209 66.50711182 24.43922852 65.63385254 24.625 64.73413086 C24.84615479 63.67826782 24.84615479 63.67826782 25.07177734 62.60107422 C26.45952932 54.41412943 25.47809542 46.89049147 21.4140625 39.58178711 C17.43071401 34.82566901 13.34278631 31.75623388 7.4765625 29.76928711 C5.21484375 28.89428711 5.21484375 28.89428711 3.4140625 27.58178711 C2.47159577 24.82075783 2.15983024 22.23144865 1.8359375 19.33569336 C1.05527127 14.23967771 -1.36437219 11.29178473 -5.38552856 8.19659424 C-13.3291428 3.50619792 -21.27237276 3.97861684 -30.20330429 4.14302826 C-33.00546289 4.19207825 -35.80586389 4.20574309 -38.60842896 4.21002197 C-46.56850483 4.22783028 -54.52750192 4.30368119 -62.48681641 4.41333008 C-67.37457738 4.47821957 -72.26098067 4.49869307 -77.14914322 4.49317169 C-78.99823407 4.50008962 -80.84734949 4.52389656 -82.69598007 4.56572723 C-93.67095681 4.81168061 -100.80652895 4.37015396 -109.06521606 -3.28656006 C-113.0307344 -6.64000811 -117.09599463 -7.64620207 -122.21435547 -7.73706055 C-123.07479462 -7.75693024 -123.93523376 -7.77679993 -124.82174683 -7.79727173 C-125.73135162 -7.80882294 -126.64095642 -7.82037415 -127.578125 -7.83227539 C-128.99703537 -7.86132462 -128.99703537 -7.86132462 -130.4446106 -7.89096069 C-133.44996272 -7.95048338 -136.45535371 -7.99703235 -139.4609375 -8.04321289 C-141.50522454 -8.08141781 -143.54949592 -8.120471 -145.59375 -8.16040039 C-150.5910178 -8.25616243 -155.58836092 -8.34029403 -160.5859375 -8.41821289 C-121.21023046 -49.20042874 -38.41200939 -31.52267598 0 0 Z " fill="#FEFEFE" transform="translate(312.5859375,123.418212890625)"/>
<path d="M0 0 C1.29850891 -0.00700928 2.59701782 -0.01401855 3.93487549 -0.02124023 C7.47616787 -0.0393821 11.01699101 -0.0324454 14.55829096 -0.01972389 C18.27372602 -0.00955275 21.98912258 -0.01900054 25.70455933 -0.02526855 C31.94015677 -0.03253124 38.17556425 -0.02299177 44.41113281 -0.00390625 C51.61177486 0.01787912 58.81196413 0.01079379 66.0125953 -0.01121187 C72.20731825 -0.02938257 78.40190519 -0.03191667 84.59664619 -0.0214572 C88.29121247 -0.01523383 91.98556609 -0.01435491 95.68011856 -0.02760315 C99.79743395 -0.04133828 103.91397209 -0.02228498 108.03125 0 C109.25010895 -0.00809692 110.4689679 -0.01619385 111.72476196 -0.02453613 C118.06948634 0.03912255 122.10488276 0.17183897 126.88623047 4.51757812 C130.88628436 8.95007027 132.14456118 12.11137109 132.06018066 18.11724854 C131.7128109 22.91058556 130.62832618 27.56918751 129.62060547 32.25976562 C129.26860077 33.94333664 129.26860077 33.94333664 128.90948486 35.66091919 C128.15920286 39.23975752 127.39778448 42.81612344 126.63623047 46.39257812 C126.13942704 48.75701245 125.64332687 51.12159467 125.14794922 53.48632812 C123.96063092 59.14070359 122.75805011 64.79165145 121.54553223 70.44067383 C121.12152159 72.41949483 120.69970917 74.39878881 120.28063965 76.37866211 C119.74856478 78.89236376 119.20925567 81.40438977 118.66748047 83.91601562 C118.51768738 84.63046844 118.36789429 85.34492126 118.21356201 86.08102417 C116.37177017 94.50638797 112.95426543 99.19047244 106.14404297 104.29101562 C99.73379363 107.77340022 93.4816916 107.79043371 86.35888672 107.71289062 C85.36996933 107.71006073 84.38105194 107.70723083 83.36216736 107.70431519 C80.22422852 107.69317955 77.08658208 107.66808716 73.94873047 107.64257812 C71.8126669 107.63253978 69.67659883 107.62341542 67.54052734 107.61523438 C62.32232974 107.59326193 57.104301 107.55985066 51.88623047 107.51757812 C54.24961521 106.32581042 56.61807689 105.18036371 59.02294922 104.07226562 C73.51753696 97.21563996 81.76579754 88.61417135 88.05029297 73.76757812 C92.43298309 60.33278972 90.74683198 45.22512777 84.49560547 32.74023438 C83.06540265 30.23737945 81.54305322 27.87552487 79.88623047 25.51757812 C79.44666016 24.88207031 79.00708984 24.2465625 78.55419922 23.59179688 C71.67196018 14.64686948 60.81226086 9.4396442 49.88623047 7.51757812 C40.0915888 6.62466734 30.02105091 6.49825713 20.88623047 10.51757812 C20.21978516 10.78441406 19.55333984 11.05125 18.86669922 11.32617188 C5.20067138 17.39097713 -2.72286645 28.25007346 -8.16845703 41.75585938 C-12.7504636 55.14213475 -10.35872932 68.8277155 -4.82861328 81.45117188 C0.81806953 92.79172426 8.61571087 98.93214263 19.84716797 104.10742188 C22.88623047 105.51757812 22.88623047 105.51757812 25.88623047 107.51757812 C18.41038599 107.5871813 10.93461174 107.64044155 3.45850849 107.67301464 C-0.01321063 107.68865055 -3.48470757 107.70985025 -6.95629883 107.74389648 C-10.95021665 107.78281876 -14.94390216 107.79730442 -18.93798828 107.81054688 C-20.18086105 107.82603073 -21.42373383 107.84151459 -22.70426941 107.85746765 C-23.86509537 107.85769424 -25.02592133 107.85792084 -26.22192383 107.8581543 C-27.7508149 107.86814705 -27.7508149 107.86814705 -29.31059265 107.87834167 C-34.96050879 107.15120818 -38.37053625 103.57274751 -42.11376953 99.51757812 C-45.41009763 92.92492193 -41.46713914 81.2772078 -40.03955078 74.28710938 C-39.83518402 73.26064804 -39.63081726 72.23418671 -39.42025757 71.17662048 C-38.76356596 67.89277441 -38.09606975 64.61127378 -37.42626953 61.33007812 C-37.20000885 60.21451538 -36.97374817 59.09895264 -36.7406311 57.94958496 C-35.22179989 50.46730874 -33.67804924 42.99047931 -32.11376953 35.51757812 C-31.94453979 34.7071405 -31.77531006 33.89670288 -31.60095215 33.06170654 C-30.70492758 28.78811419 -29.77217588 24.52493734 -28.80126953 20.26757812 C-28.59606689 19.31987549 -28.39086426 18.37217285 -28.17944336 17.39575195 C-26.52002351 10.44721885 -23.94917266 6.3186899 -17.75637817 2.3848877 C-12.03718826 -0.36169994 -6.23013897 -0.04152496 0 0 Z " fill="#FEFEFE" transform="translate(194.11376953125,163.482421875)"/>
<path d="M0 0 C8.22073766 5.90503691 13.06116098 13.68348295 16.25 23.25 C17.48586899 36.69795926 16.43656774 46.98309284 8.1875 57.9375 C0.84141744 66.46765508 -7.57155181 71.57823698 -18.74609375 72.49609375 C-30.08111741 72.93667771 -39.3572875 69.96702802 -47.75 62.25 C-56.16745811 53.93603523 -60.47505382 44.85068534 -61.125 33 C-60.77903057 21.96741933 -56.17923882 12.25465318 -48.75 4.25 C-34.94683607 -7.88611514 -15.79810437 -9.81476916 0 0 Z " fill="#000000" transform="translate(255.75,187.75)"/>
<path d="M0 0 C0.96141403 -0.01377182 1.92282806 -0.02754364 2.91337585 -0.04173279 C4.9378799 -0.06489279 6.9624583 -0.08221475 8.98706055 -0.09399414 C12.0559605 -0.12093348 15.12141782 -0.19594609 18.18945312 -0.27148438 C36.05717353 -0.50939542 36.05717353 -0.50939542 43.37182617 5.53930664 C49.32214968 10.27512955 54.764509 12.03776408 62.30151367 11.93969727 C63.11395035 11.94521606 63.92638702 11.95073486 64.76344299 11.9564209 C66.51266765 11.96568803 68.2619598 11.96589015 70.01119041 11.95782661 C72.78175203 11.94513121 75.55132707 11.95654415 78.32185364 11.97386169 C83.20089609 12.0004846 88.07969404 12.00616 92.95880127 12.00476074 C100.77785798 12.0025265 108.5966136 12.01665565 116.41555214 12.0603466 C119.14163248 12.0701753 121.86723705 12.06147544 124.5933075 12.051651 C126.26557731 12.05779496 127.93784453 12.06470662 129.61010742 12.07250977 C130.36502472 12.0647905 131.11994202 12.05707123 131.8977356 12.04911804 C136.35195391 12.09198853 139.24298962 12.64871762 142.76171875 15.44140625 C144.07421875 18.12890625 144.07421875 18.12890625 144.76171875 20.44140625 C141.32811577 21.97633654 138.59515985 22.70023445 134.84008789 22.76025391 C133.40087479 22.79005844 133.40087479 22.79005844 131.93258667 22.82046509 C130.89780182 22.8320163 129.86301697 22.8435675 128.796875 22.85546875 C127.70794952 22.8748349 126.61902405 22.89420105 125.49710083 22.91415405 C121.93955398 22.97452298 118.38198222 23.02074015 114.82421875 23.06640625 C112.36563294 23.10494061 109.90705541 23.14400647 107.44848633 23.18359375 C93.28129187 23.39980401 79.11778339 23.4849046 64.94921875 23.44140625 C54.48889864 23.41577226 44.03157233 23.400507 33.57421875 23.69140625 C32.14082153 23.71267578 32.14082153 23.71267578 30.6784668 23.734375 C21.83759708 24.0529936 12.57024837 26.58290402 5.76171875 32.44140625 C-4.40264362 44.21875308 -6.03503434 61.96507948 -9.17578125 76.69140625 C-9.62007844 78.75178757 -10.06474171 80.81208998 -10.50976562 82.87231445 C-13.06982058 94.76312857 -15.57857694 106.66314119 -17.79272461 118.62402344 C-17.9603833 119.50606445 -18.12804199 120.38810547 -18.30078125 121.296875 C-18.50380859 122.40518677 -18.50380859 122.40518677 -18.7109375 123.53588867 C-19.23828125 125.44140625 -19.23828125 125.44140625 -21.23828125 128.44140625 C-22.20801772 125.53219684 -22.37042277 123.66231628 -22.38545227 120.634552 C-22.39260757 119.64478363 -22.39976288 118.65501526 -22.40713501 117.63525391 C-22.40982391 116.55050781 -22.41251282 115.46576172 -22.4152832 114.34814453 C-22.4218544 113.20481659 -22.4284256 112.06148865 -22.43519592 110.8835144 C-22.45493764 107.09291522 -22.46659211 103.30235563 -22.4765625 99.51171875 C-22.48063803 98.21886837 -22.48471355 96.92601799 -22.48891258 95.59399033 C-22.50762327 89.45960078 -22.52218995 83.32523112 -22.53052455 77.19081891 C-22.54030088 70.11253464 -22.56663386 63.03456277 -22.60702544 55.95638859 C-22.64082318 49.82306248 -22.65266931 43.68986778 -22.65672874 37.5564537 C-22.66160891 34.94810744 -22.67326325 32.33976485 -22.69176674 29.73147964 C-22.71603057 26.08521677 -22.71521626 22.43977538 -22.70825195 18.79345703 C-22.72106201 17.7127594 -22.73387207 16.63206177 -22.74707031 15.51861572 C-22.69626744 8.23593732 -22.69626744 8.23593732 -20.43453979 4.31221008 C-14.89332922 -0.4078708 -6.9205514 0.08864191 0 0 Z " fill="#00A4FE" transform="translate(158.23828125,127.55859375)"/>
<path d="M0 0 C8.22073766 5.90503691 13.06116098 13.68348295 16.25 23.25 C17.48586899 36.69795926 16.43656774 46.98309284 8.1875 57.9375 C0.84141744 66.46765508 -7.57155181 71.57823698 -18.74609375 72.49609375 C-30.08111741 72.93667771 -39.3572875 69.96702802 -47.75 62.25 C-56.16745811 53.93603523 -60.47505382 44.85068534 -61.125 33 C-60.77903057 21.96741933 -56.17923882 12.25465318 -48.75 4.25 C-34.94683607 -7.88611514 -15.79810437 -9.81476916 0 0 Z M-44.8125 14.6875 C-45.82722704 16.18484112 -46.81092215 17.70409115 -47.75 19.25 C-48.389375 20.28125 -49.02875 21.3125 -49.6875 22.375 C-52.65158774 30.4605811 -51.8033482 40.04104356 -48.3125 47.75 C-44.6276737 54.21369058 -39.81706213 58.6030079 -32.9140625 61.3984375 C-23.18452719 64.01700379 -13.97707833 63.02136457 -5.27734375 58.01171875 C1.48962015 53.29471609 5.18746648 47.23212126 7.25 39.25 C8.43454937 29.81353368 6.56422248 22.06843115 0.9375 14.4375 C-4.23033658 8.20569707 -9.89456188 4.86133846 -17.9765625 3.84375 C-28.89944932 3.54242898 -37.69319614 5.98943838 -44.8125 14.6875 Z " fill="#FEFEFE" transform="translate(255.75,187.75)"/>
<path d="M0 0 C3.20801077 2.02955783 4.55160311 3.46586221 5.62109375 7.125 C6.45418977 12.20946229 6.07925264 15.6890463 3 20 C-0.4760199 22.97944563 -3.62032157 23.5362791 -8.0703125 23.3515625 C-11.242153 22.77369682 -12.85500693 21.33425716 -15 19 C-17.27415594 15.27865392 -17.20703828 12.11624399 -16.55078125 7.93359375 C-15.71149195 4.98715259 -14.13891829 3.13891829 -12 1 C-8.26731351 -0.86634324 -4.06513036 -0.54329572 0 0 Z " fill="#000000" transform="translate(196,299)"/>
<path d="M0 0 C2.26277515 -0.05235647 4.52589651 -0.08991235 6.7890625 -0.12109375 C8.04928223 -0.14357178 9.30950195 -0.1660498 10.60791016 -0.18920898 C14 0 14 0 17.375 1.9375 C19.58186115 6.09658448 20.00958102 9.39430807 19 14 C16.914769 17.22874477 15.45680312 18.67599529 11.6640625 19.51953125 C9.45236387 19.78116752 7.22489097 19.90037802 5 20 C5 22.97 5 25.94 5 29 C3.02 29.99 3.02 29.99 1 31 C0 30 0 30 -0.11352539 27.13256836 C-0.10828857 25.88096924 -0.10305176 24.62937012 -0.09765625 23.33984375 C-0.0962413 22.67537735 -0.09482635 22.01091095 -0.09336853 21.3263092 C-0.08775518 19.19666101 -0.07520054 17.06711661 -0.0625 14.9375 C-0.05748671 13.49674631 -0.05292351 12.05599097 -0.04882812 10.61523438 C-0.03778145 7.07678898 -0.02050792 3.53840461 0 0 Z " fill="#000000" transform="translate(236,291)"/>
<path d="M0 0 C2.0625 0.4375 2.0625 0.4375 4 1 C4 2.65 4 4.3 4 6 C6.475 6.495 6.475 6.495 9 7 C9 7.99 9 8.98 9 10 C7.35 10.33 5.7 10.66 4 11 C4.33 15.29 4.66 19.58 5 24 C6.32 24.33 7.64 24.66 9 25 C8.67 26.32 8.34 27.64 8 29 C2.58029197 29.36131387 2.58029197 29.36131387 0.34375 27.96875 C-1.69896461 24.97593557 -1.57277939 21.82295079 -1.6875 18.3125 C-1.73874023 17.2596582 -1.73874023 17.2596582 -1.79101562 16.18554688 C-1.87329947 14.45758613 -1.9383324 12.72881928 -2 11 C-4.97 11 -7.94 11 -11 11 C-11.33 16.61 -11.66 22.22 -12 28 C-13.32 28.33 -14.64 28.66 -16 29 C-17 28 -17 28 -17.11352539 25.86694336 C-17.10828857 24.95050049 -17.10305176 24.03405762 -17.09765625 23.08984375 C-17.09443359 22.10048828 -17.09121094 21.11113281 -17.08789062 20.09179688 C-17.07951172 19.05087891 -17.07113281 18.00996094 -17.0625 16.9375 C-17.05798828 15.89271484 -17.05347656 14.84792969 -17.04882812 13.77148438 C-17.03699927 11.18096546 -17.01906319 8.59047578 -17 6 C-11.72 6 -6.44 6 -1 6 C-1 4.35 -1 2.7 -1 1 C-0.67 0.67 -0.34 0.34 0 0 Z " fill="#000000" transform="translate(223,293)"/>
<path d="M0 0 C1.04285156 0.06703125 2.08570313 0.1340625 3.16015625 0.203125 C6.18719077 0.79916555 7.21707788 1.22167696 8.9375 3.75 C9.70687618 10.67438563 9.70687618 10.67438563 7.34765625 13.97265625 C4.10416247 16.36453578 1.93472061 16.28387475 -2.0625 16.25 C-3.8878125 16.26546875 -3.8878125 16.26546875 -5.75 16.28125 C-9.5943376 15.66470529 -10.79688603 14.86730669 -13.0625 11.75 C-13.52767421 8.02860636 -13.57104958 5.71624421 -11.8125 2.375 C-8.34801551 -0.84202132 -4.51241367 -0.33549544 0 0 Z " fill="#000000" transform="translate(302.0625,176.25)"/>
<path d="M0 0 C0.66 0.33 1.32 0.66 2 1 C2 2.65 2 4.3 2 6 C-1.63 6 -5.26 6 -9 6 C-9.33 7.32 -9.66 8.64 -10 10 C-9.48050781 10.31453125 -8.96101562 10.6290625 -8.42578125 10.953125 C2.55456127 17.69152374 2.55456127 17.69152374 4 21.9375 C4 25.60292141 3.23178648 27.13056023 1 30 C-2.35197843 32.23465229 -3.57791246 32.27108649 -7.5 32.25 C-8.93859375 32.25773437 -8.93859375 32.25773437 -10.40625 32.265625 C-13 32 -13 32 -16 30 C-16 28.68 -16 27.36 -16 26 C-15.24074219 26.09539062 -14.48148438 26.19078125 -13.69921875 26.2890625 C-12.20841797 26.45535156 -12.20841797 26.45535156 -10.6875 26.625 C-9.70136719 26.74101562 -8.71523437 26.85703125 -7.69921875 26.9765625 C-4.77342584 27.25476995 -4.77342584 27.25476995 -2 25 C-2.13203757 23.08641848 -2.13203757 23.08641848 -3 21 C-5.19907632 19.35122512 -5.19907632 19.35122512 -7.875 18 C-11.45074715 16.08181494 -13.94123517 14.56350988 -16 11 C-15.89285714 4.89285714 -15.89285714 4.89285714 -13.125 2.125 C-8.57482454 -0.28391642 -5.0319093 -0.15974315 0 0 Z " fill="#000000" transform="translate(173,290)"/>
<path d="M0 0 C2.25 0.125 2.25 0.125 5 1 C7.3125 4.0625 7.3125 4.0625 9 7 C9.31453125 6.4946875 9.6290625 5.989375 9.953125 5.46875 C10.59507812 4.49421875 10.59507812 4.49421875 11.25 3.5 C11.66765625 2.8503125 12.0853125 2.200625 12.515625 1.53125 C13.00546875 1.0259375 13.4953125 0.520625 14 0 C15.32 0 16.64 0 18 0 C16.97603803 2.75682069 15.93604828 5.09711187 14.3125 7.5625 C12.83194948 9.82330584 12.83194948 9.82330584 13.0625 11.9375 C14.38333319 14.84333301 16.21915863 17.35746119 18 20 C18 20.66 18 21.32 18 22 C16.68 22.33 15.36 22.66 14 23 C12.02 20.69 10.04 18.38 8 16 C7.13375 17.4540625 7.13375 17.4540625 6.25 18.9375 C4 22 4 22 1.75 22.875 C1.1725 22.91625 0.595 22.9575 0 23 C-0.33 22.34 -0.66 21.68 -1 21 C0.03125 19.23046875 0.03125 19.23046875 1.5 17.1875 C3.60541795 14.02547784 3.60541795 14.02547784 4 10.3125 C2.8795308 7.72141498 1.46032489 5.41271069 0 3 C0 2.01 0 1.02 0 0 Z " fill="#000000" transform="translate(268,299)"/>
<path d="M0 0 C2.19282381 2.26356006 2.96775325 3.87566342 3.05859375 7.04296875 C2.875 9.1875 2.875 9.1875 2 13 C-1.24153166 15.1610211 -2.23692901 15.64247553 -6 15 C-8.375 12.9375 -8.375 12.9375 -10 10 C-9.93931504 6.48027215 -9.66225706 4.08052467 -7.8125 1.0625 C-5.02331475 -0.57253963 -3.15784841 -0.52630807 0 0 Z " fill="#FEFEFE" transform="translate(194,303)"/>
<path d="M0 0 C3.72509519 1.63972748 4.7308101 4.51563527 6.296875 8.05859375 C6.59980469 8.70505859 6.90273437 9.35152344 7.21484375 10.01757812 C8.00665894 11.71206264 8.77805625 13.41605217 9.546875 15.12109375 C9.876875 15.78109375 10.206875 16.44109375 10.546875 17.12109375 C6.24781392 17.55099986 4.05284689 17.42273084 0.296875 15.18359375 C-3.24934864 11.90286279 -4.31740577 7.693858 -5.453125 3.12109375 C-3.69369677 0.8060566 -2.96134088 0.14618084 0 0 Z " fill="#FEFEFE" transform="translate(222.453125,217.87890625)"/>
<path d="M0 0 C1.98 0.495 1.98 0.495 4 1 C4 7.93 4 14.86 4 22 C2.68 22.33 1.36 22.66 0 23 C-1.62200515 21.37799485 -1.1299075 19.57976969 -1.1328125 17.34375 C-1.13410156 16.40402344 -1.13539063 15.46429688 -1.13671875 14.49609375 C-1.13285156 13.50738281 -1.12898438 12.51867187 -1.125 11.5 C-1.12886719 10.51128906 -1.13273437 9.52257812 -1.13671875 8.50390625 C-1.13542969 7.56417969 -1.13414062 6.62445313 -1.1328125 5.65625 C-1.13168457 4.78806641 -1.13055664 3.91988281 -1.12939453 3.02539062 C-1 1 -1 1 0 0 Z " fill="#000000" transform="translate(260,299)"/>
<path d="M0 0 C7.875 0.875 7.875 0.875 9 2 C9.4556962 7.24050633 9.4556962 7.24050633 7.875 9.875 C5.21965017 11.4682099 3.03210482 11.20214032 0 11 C0 7.37 0 3.74 0 0 Z " fill="#FEFEFE" transform="translate(241,295)"/>
<path d="M0 0 C1.9375 1.5 1.9375 1.5 3 3 C1.125 7.875 1.125 7.875 0 9 C-2.875 9.3125 -2.875 9.3125 -6 9 C-7.875 7.25 -7.875 7.25 -9 5 C-9 3.68 -9 2.36 -9 1 C-5.95016004 -0.52491998 -3.3576631 -0.23562548 0 0 Z " fill="#FFFFFF" transform="translate(236,206)"/>
<path d="M0 0 C0.99 0.33 1.98 0.66 3 1 C2.67 2.65 2.34 4.3 2 6 C0.68 5.67 -0.64 5.34 -2 5 C-2 3.68 -2 2.36 -2 1 C-1.34 0.67 -0.68 0.34 0 0 Z " fill="#000000" transform="translate(261,289)"/>
</svg>
